<svg width="105" height="106" viewBox="0 0 105 106" fill="none" xmlns="http://www.w3.org/2000/svg">
<g clip-path="url(#clip0_20_300)">
<path d="M52.3556 106C24.145 106 0.221427 81.9446 0.00158345 53.2816C-0.0476883 46.368 1.26299 39.5133 3.85762 33.1149C6.45225 26.7165 10.2792 20.9017 15.1167 16.0077C19.9859 10.9732 25.7975 6.96563 32.2139 4.21763C38.6303 1.46963 45.5236 0.036006 52.4934 2.01254e-05C59.3372 -0.00603665 66.1146 1.35506 72.4351 4.00489C78.7556 6.65473 84.4943 10.5409 89.3205 15.4396C94.2252 20.2697 98.1355 26.0312 100.826 32.3925C103.517 38.7539 104.936 45.5896 105 52.5065C105.131 81.8188 81.7982 105.702 52.7821 106H52.3556ZM52.5196 2.77424C45.9148 2.81313 39.3834 4.17601 33.3045 6.78379C27.2257 9.39157 21.7204 13.1923 17.1084 17.9654C12.5206 22.596 8.88898 28.0998 6.42391 34.1578C3.95884 40.2159 2.70939 46.7076 2.74799 53.2567C2.95471 80.4192 25.6281 103.198 52.3408 103.198H52.6985C80.2117 102.946 102.357 80.3 102.25 52.5214C102.126 39.2846 96.7738 26.6474 87.3813 17.4089C82.8188 12.7618 77.3881 9.07519 71.4038 6.56276C65.4195 4.05032 59.0008 2.76204 52.5196 2.77258V2.77424ZM11.7796 68.5025V37.5389H19.2412V40.3131H15.2824V65.783H19.2395V68.5572L11.7796 68.5025ZM37.1027 52.7151C37.1027 58.3464 33.7066 61.5794 29.1046 61.5794C24.5027 61.5794 21.4363 57.9588 21.4363 53.0066C21.4363 47.8325 24.652 44.1838 29.3507 44.1838C34.0495 44.1838 37.101 47.9849 37.101 52.7135L37.1027 52.7151ZM24.6536 52.9636C24.6536 56.392 26.3599 59.0917 29.2851 59.0917C32.2103 59.0917 33.8887 56.3175 33.8887 52.8211C33.8887 49.6445 32.3367 46.6483 29.2851 46.6483C26.2335 46.6483 24.6093 49.5666 24.6093 53.0331L24.6536 52.9636ZM39.7031 44.7685C41.1644 44.5138 42.6449 44.3885 44.1278 44.3941C45.7931 44.2285 47.4681 44.6045 48.9103 45.4624C50.0095 46.1166 50.6739 47.3224 50.6411 48.6093C50.6219 49.4321 50.3459 50.2278 49.8525 50.883C49.359 51.5381 48.6733 52.0194 47.8931 52.258C49.8536 52.6605 51.2613 54.4012 51.2596 56.4202C51.2698 57.0835 51.1304 57.7405 50.8518 58.3414C50.5732 58.9423 50.1629 59.4713 49.6518 59.8884C48.4706 60.9434 46.5051 61.4552 43.4667 61.4552C42.2175 61.4614 40.9692 61.3873 39.7293 61.2332L39.7031 44.7685ZM42.7267 51.4133H44.2788C46.3788 51.4133 47.5633 50.4146 47.5633 48.9853C47.5633 47.5559 46.382 46.6665 44.4461 46.6665C43.8664 46.6465 43.2863 46.6882 42.7153 46.7907L42.7267 51.4133ZM42.7267 59.1546C43.2616 59.211 43.7981 59.2341 44.3346 59.2242C46.3033 59.2242 48.0178 58.4756 48.0178 56.45C48.0178 54.4244 46.341 53.6758 44.2394 53.6758H42.73L42.7267 59.1546ZM57.2463 44.5465H60.2814V55.4778C60.2814 60.1252 58.0551 61.6788 54.7853 61.6788C53.9108 61.6714 53.0433 61.5215 52.2161 61.2349L52.5869 58.7505C53.1964 58.9426 53.8302 59.0453 54.4687 59.0553C56.1996 59.0553 57.2167 58.2503 57.2167 55.337L57.2463 44.5465ZM68.9275 53.6609V55.7842H62.6062V53.6625L68.9275 53.6609ZM83.6718 60.8722C82.3052 61.422 80.8401 61.6771 79.3701 61.6208C74.0791 61.6208 70.8635 58.2752 70.8635 53.1739C70.8011 51.9813 70.9895 50.789 71.4162 49.6751C71.8429 48.5613 72.4983 47.5512 73.3392 46.7113C74.1802 45.8714 75.1877 45.2207 76.2956 44.8019C77.4034 44.3831 78.5865 44.2058 79.7671 44.2815C81.1791 44.2232 82.5866 44.4787 83.89 45.0301L83.2338 47.4715C82.2003 47.0281 81.0869 46.8059 79.964 46.8189C76.5679 46.8189 74.1234 48.9687 74.1234 53.0199C74.1234 56.71 76.2808 59.0983 79.9361 59.0983C81.0711 59.1161 82.198 58.9038 83.2502 58.4739L83.6718 60.8722ZM93.2071 37.4561V68.5025H85.7456V65.7283H89.7028V40.2469H85.7456V37.4727L93.2071 37.4561Z" fill="#F1592A"/>
</g>
<defs>
<clipPath id="clip0_20_300">
<rect width="105" height="106" fill="white"/>
</clipPath>
</defs>
</svg>
