<svg width="67" height="91" viewBox="0 0 67 91" fill="none" xmlns="http://www.w3.org/2000/svg">
<path d="M28.1369 52.4232C28.5741 52.4352 29.0085 52.3504 29.4089 52.1746C29.8093 51.9989 30.1659 51.7366 30.4529 51.4068C31.0561 50.7291 31.3577 49.7126 31.3577 48.3571C31.3577 47.0177 31.064 46.0185 30.4767 45.3594C30.1714 45.0457 29.8062 44.7966 29.4027 44.6269C28.9993 44.4571 28.5658 44.3702 28.1281 44.3713C27.6904 44.3725 27.2574 44.4615 26.8548 44.6333C26.4522 44.8051 26.0883 45.0561 25.7846 45.3713C25.1891 46.0392 24.8915 47.0452 24.8917 48.389C24.8917 49.7126 25.1974 50.7158 25.8087 51.3986C26.0974 51.7302 26.4558 51.994 26.8583 52.1711C27.2608 52.3482 27.6974 52.4343 28.1369 52.4232Z" fill="black"/>
<path d="M54.2812 60.3438C55.0683 60.3429 55.8229 60.0298 56.3795 59.4732C56.9361 58.9167 57.2491 58.1621 57.25 57.375V39.5625C57.2491 38.7754 56.9361 38.0208 56.3795 37.4643C55.8229 36.9077 55.0683 36.5946 54.2812 36.5938H3.8125C3.02541 36.5946 2.27081 36.9077 1.71425 37.4643C1.1577 38.0208 0.844634 38.7754 0.84375 39.5625V57.375C0.844634 58.1621 1.1577 58.9167 1.71425 59.4732C2.27081 60.0298 3.02541 60.3429 3.8125 60.3438H54.2812ZM35.6894 42.5531H39.2215L41.3423 50.5257L43.439 42.5531H46.9789V54.2426H44.7864V45.0406L42.4664 54.2411H40.1942L37.8822 45.0406V54.2411H35.6894V42.5531ZM22.9951 45.4711C23.2603 44.8768 23.6288 44.3342 24.0835 43.8687C24.5101 43.4186 25.0242 43.0605 25.5942 42.8162C26.3944 42.4945 27.2513 42.3372 28.1136 42.3539C29.8357 42.3539 31.2137 42.888 32.2476 43.9562C33.2814 45.0245 33.7984 46.5101 33.7984 48.4131C33.7984 50.3 33.2855 51.7763 32.2598 52.8421C31.2341 53.9079 29.8628 54.4408 28.1459 54.4408C26.4079 54.4408 25.026 53.9106 24 52.8503C22.9741 51.7899 22.4608 50.3294 22.4603 48.4688C22.4297 47.4433 22.6116 46.4227 22.9947 45.4711H22.9951ZM12.1591 43.9681C12.666 43.4316 13.2819 43.0099 13.9654 42.7313C14.6489 42.4528 15.3842 42.324 16.1217 42.3535C17.4049 42.2992 18.6575 42.7549 19.6059 43.6212C20.1922 44.217 20.6056 44.9609 20.8019 45.7735L18.4659 46.3301C18.3579 45.7625 18.0498 45.2524 17.5978 44.8926C17.1457 44.5327 16.5796 44.3469 16.0022 44.3689C15.6032 44.3561 15.2064 44.4334 14.8413 44.5949C14.4763 44.7564 14.1522 44.998 13.8933 45.3018C13.3537 45.9238 13.0839 46.9311 13.0839 48.3237C13.0839 49.8016 13.3496 50.854 13.881 51.4809C14.132 51.7853 14.4492 52.0284 14.8085 52.1914C15.1678 52.3544 15.5596 52.4332 15.9539 52.4216C16.5494 52.4333 17.1274 52.2198 17.5723 51.8238C18.0844 51.3132 18.4245 50.6555 18.5449 49.9424L20.8331 50.6678C20.5826 51.7838 19.9667 52.7841 19.083 53.5101C18.1799 54.1561 17.0872 54.4826 15.9777 54.4378C15.2634 54.4599 14.5527 54.3295 13.8928 54.0552C13.233 53.7809 12.6391 53.3691 12.151 52.8473C11.1517 51.7869 10.6521 50.3372 10.6521 48.4981C10.6514 46.5545 11.1532 45.0445 12.1577 43.9681H12.1591Z" fill="black"/>
<path d="M60.2188 0.96875H9.75C8.17582 0.970518 6.66662 1.59664 5.55351 2.70976C4.44039 3.82287 3.81427 5.33207 3.8125 6.90625V33.625H6.78125V6.90625C6.78213 6.11916 7.0952 5.36456 7.65175 4.808C8.20831 4.25145 8.96291 3.93838 9.75 3.9375H60.2188C61.0058 3.93838 61.7604 4.25145 62.317 4.808C62.8736 5.36456 63.1866 6.11916 63.1875 6.90625V68.8897C63.1867 69.0102 63.1786 69.1305 63.1634 69.25H49.8281C48.6475 69.2513 47.5155 69.7209 46.6807 70.5557C45.8459 71.3905 45.3763 72.5225 45.375 73.7031V87.0384C45.2555 87.0536 45.1352 87.0617 45.0147 87.0625H9.75C8.96291 87.0616 8.20831 86.7486 7.65175 86.192C7.0952 85.6354 6.78213 84.8808 6.78125 84.0938V63.3125H3.8125V84.0938C3.81427 85.6679 4.44039 87.1771 5.55351 88.2902C6.66662 89.4034 8.17582 90.0295 9.75 90.0312H45.0147C45.7947 90.0334 46.5674 89.8807 47.288 89.5822C48.0086 89.2836 48.6629 88.8451 49.2128 88.2919L64.4169 73.0879C64.9701 72.5379 65.4086 71.8836 65.7072 71.163C66.0057 70.4424 66.1584 69.6697 66.1562 68.8897V6.90625C66.1545 5.33207 65.5284 3.82287 64.4152 2.70976C63.3021 1.59664 61.7929 0.970518 60.2188 0.96875Z" fill="black"/>
</svg>
