<svg width="97" height="98" viewBox="0 0 97 98" fill="none" xmlns="http://www.w3.org/2000/svg">
<path d="M17.891 83.3031L11.0828 6.125H85.9183L79.101 83.2908L48.455 91.875L17.891 83.3031Z" fill="#1572B6"/>
<path d="M48.5 85.3151L73.2653 78.3785L79.0914 12.4368H48.5V85.3151Z" fill="#33A9DC"/>
<path d="M48.5 40.3975H60.8978L61.7526 30.7047H48.5V21.2385H48.5333H71.9922L71.7679 23.7773L69.4672 49.8637H48.5V40.3975Z" fill="white"/>
<path d="M48.5581 64.9799L48.5157 64.9922L38.0821 62.144L37.4152 54.595H32.344H28.0093L29.3218 69.4573L48.5127 74.8412L48.5581 74.8289V64.9799Z" fill="#EBEBEB"/>
<path d="M60.1003 49.4622L58.9726 62.1379L48.5239 64.986V74.835L67.7299 69.4572L67.8724 67.8586L69.5002 49.4622H60.1003Z" fill="white"/>
<path d="M48.5325 21.2385V27.1185V30.6802V30.7047H25.9315H25.9012L25.7132 28.5763L25.2858 23.7773L25.0615 21.2385H48.5325Z" fill="#EBEBEB"/>
<path d="M48.5004 40.3972V46.2772V49.8389V49.8634H38.2275H38.1972L38.0093 47.735L37.5849 42.936L37.3606 40.3972H48.5004Z" fill="#EBEBEB"/>
</svg>
