<svg width="98" height="99" viewBox="0 0 98 99" fill="none" xmlns="http://www.w3.org/2000/svg">
<path d="M21.3256 89.9925L15.1677 20.22H82.8321L76.6681 89.9817L48.9586 97.7416L21.3256 89.9925Z" fill="#E44D26"/>
<path d="M49 91.81L71.3899 85.539L76.6582 25.9255H49V91.81Z" fill="#F16529"/>
<path d="M49 51.8033H37.7905L37.0172 43.0395H49V34.4822H27.7593L27.9614 36.7785L30.0439 60.3598H49V51.8033ZM49 74.0265L48.9625 74.0365L39.5292 71.4625L38.9259 64.6385H30.4221L31.6088 78.0747L48.961 82.9411L49 82.9295V74.0265Z" fill="#EBEBEB"/>
<path d="M21.4636 1.2583H25.768V5.55552H29.7063V1.2583H34.0115V14.2691H29.7063V9.91229H25.7687V14.2691H21.4636V1.2583ZM39.6717 5.57331H35.8819V1.2583H47.7682V5.57331H43.9768V14.2691H39.6717V5.57331ZM49.6547 1.2583H54.1428L56.9044 5.83009L59.663 1.2583H64.1533V14.2691H59.8651V7.82014L56.9044 12.4461H56.8294L53.8664 7.82014V14.2691H49.6539V1.2583H49.6547ZM66.2963 1.2583H70.6022V9.96875H76.656V14.2698H66.2963V1.2583Z" fill="black"/>
<path d="M48.9709 51.8033V60.3598H59.4018L58.4188 71.4579L48.9709 74.0342V82.9365L66.3368 78.0747L66.4639 76.6283L68.4546 54.1004L68.6613 51.8033H66.3782H48.9709ZM48.9709 34.4822V43.0395H69.4323L69.6015 41.116L69.9881 36.7785L70.191 34.4822H48.9709Z" fill="white"/>
</svg>
