<svg width="114" height="114" viewBox="0 0 114 114" fill="none" xmlns="http://www.w3.org/2000/svg">
<path d="M46.8299 60.3994C46.8299 60.3994 43.9051 62.1014 48.9148 62.6767C54.9835 63.3696 58.0856 63.2699 64.7724 62.0061C64.7724 62.0061 66.5349 63.1078 68.9895 64.0625C53.9949 70.4866 35.0531 63.6903 46.8299 60.3994ZM44.9961 52.0142C44.9961 52.0142 41.715 54.4447 46.7283 54.963C53.2121 55.6319 58.3305 55.6871 67.194 53.9807C67.194 53.9807 68.4168 55.224 70.3433 55.9017C52.2173 61.2045 32.0277 56.3194 44.9961 52.0142Z" fill="#0074BD"/>
<path d="M60.4423 37.7902C64.1393 42.0456 59.4733 45.8717 59.4733 45.8717C59.4733 45.8717 68.8542 41.0294 64.5463 34.9634C60.5215 29.3088 57.4373 26.5006 74.1392 16.8142C74.1401 16.8142 47.921 23.3603 60.4423 37.7902Z" fill="#EA2D2E"/>
<path d="M80.2739 66.6019C80.2739 66.6019 82.4399 68.3876 77.8888 69.7681C69.2355 72.3892 41.8684 73.1801 34.2669 69.8723C31.5362 68.6833 36.66 67.0339 38.2712 66.6874C39.9518 66.3232 40.9119 66.39 40.9119 66.39C37.873 64.2498 21.2691 70.5928 32.4785 72.4124C63.0483 77.3669 88.2023 70.1805 80.2739 66.6019ZM48.2381 43.3263C48.2381 43.3263 34.3186 46.6332 43.3094 47.8356C47.107 48.3432 54.672 48.2266 61.724 47.6352C67.4854 47.1516 73.2674 46.1176 73.2674 46.1176C73.2674 46.1176 71.2376 46.9886 69.7672 47.9914C55.6294 51.7098 28.3238 49.9775 36.1853 46.1763C42.832 42.9603 48.2381 43.3263 48.2381 43.3263ZM73.2095 57.2824C87.5797 49.8172 80.9348 42.6423 76.2973 43.6087C75.1635 43.8456 74.6541 44.0504 74.6541 44.0504C74.6541 44.0504 75.0771 43.3878 75.8814 43.1037C85.0566 39.8796 92.1112 52.6165 72.9227 57.661C72.9227 57.661 73.1427 57.4615 73.2095 57.2824Z" fill="#0074BD"/>
<path d="M64.547 1.16943C64.547 1.16943 72.5048 9.13073 56.9981 21.3706C44.5632 31.1915 54.1624 36.79 56.9928 43.1891C49.7342 36.6395 44.41 30.8736 47.9814 25.5084C53.2263 17.6335 67.7569 13.8136 64.547 1.16943Z" fill="#EA2D2E"/>
<path d="M49.6515 77.519C63.4419 78.4007 84.6254 77.0283 85.1268 70.5027C85.1268 70.5027 84.1632 72.9759 73.7277 74.9389C61.9554 77.1548 47.4338 76.8974 38.8232 75.4759C38.8232 75.4759 40.5867 76.9366 49.6515 77.519Z" fill="#0074BD"/>
<path d="M84.4901 89.2236H84.0697V88.9885H85.2008V89.2236H84.7822V90.3966H84.4892L84.4901 89.2236ZM86.7478 89.2824H86.7425L86.3257 90.3966H86.1333L85.7191 89.2824H85.7147V90.3966H85.4368V88.9885H85.8438L86.2277 89.9851L86.6124 88.9885H87.0168V90.3966H86.7478V89.2824ZM47.3911 102.455C46.0908 103.582 44.7157 104.216 43.4804 104.216C41.7223 104.216 40.7684 103.16 40.7684 101.469C40.7684 99.6386 41.7891 98.2982 45.8788 98.2982H47.3902V102.455H47.3911ZM50.9812 106.505V93.968C50.9812 90.7626 49.1527 88.6483 44.7495 88.6483C42.1792 88.6483 39.9259 89.2842 38.0939 90.0929L38.6211 92.3132C40.0639 91.7833 41.9298 91.2916 43.7609 91.2916C46.2992 91.2916 47.3902 92.3132 47.3902 94.4275V96.012H46.122C39.9579 96.012 37.1765 98.4033 37.1765 102C37.1765 105.098 39.0094 106.859 42.4606 106.859C44.6782 106.859 46.3357 105.943 47.8827 104.603L48.1642 106.506H50.9812V106.505ZM62.9619 106.505H58.4847L53.0955 88.9698H57.0063L60.3515 99.7455L61.0951 102.983C62.7838 98.3 63.9808 93.5458 64.5793 88.9707H68.3831C67.3651 94.7428 65.5305 101.081 62.9619 106.505ZM80.1403 102.455C78.8355 103.582 77.4595 104.216 76.2286 104.216C74.4688 104.216 73.5158 103.16 73.5158 101.469C73.5158 99.6386 74.5391 98.2982 78.6244 98.2982H80.1394V102.455H80.1403ZM83.7322 106.505V93.968C83.7322 90.7626 81.8984 88.6483 77.4987 88.6483C74.9257 88.6483 72.6733 89.2842 70.8413 90.0929L71.3694 92.3132C72.8122 91.7833 74.6807 91.2916 76.5119 91.2916C79.0466 91.2916 80.1403 92.3132 80.1403 94.4275V96.012H78.872C72.7062 96.012 69.9257 98.4033 69.9257 102C69.9257 105.098 71.7568 106.859 75.2071 106.859C77.4256 106.859 79.0804 105.943 80.6319 104.603L80.9151 106.506H83.7322V106.505ZM33.24 109.485C32.2184 110.981 30.5636 112.164 28.7539 112.831L26.9824 110.743C28.3602 110.036 29.5403 108.895 30.0898 107.831C30.5636 106.885 30.7605 105.667 30.7605 102.754V82.731H34.5759V102.479C34.5759 106.375 34.266 107.951 33.24 109.485Z" fill="#EA2D2E"/>
</svg>
