<svg width="90" height="89" viewBox="0 0 90 89" fill="none" xmlns="http://www.w3.org/2000/svg">
<g clip-path="url(#clip0_20_243)">
<path d="M89.9736 0H0.0263672C0.011805 0 0 0.0116738 0 0.0260742V88.9739C0 88.9883 0.011805 89 0.0263672 89H89.9736C89.9882 89 90 88.9883 90 88.9739V0.0260742C90 0.0116738 89.9882 0 89.9736 0Z" fill="#F7DF1E"/>
<path d="M56.9531 64.3164C58.7109 67.2715 61.1719 69.3574 65.2148 69.3574C68.7305 69.3574 71.0156 67.6191 71.0156 65.1855C71.0156 62.4043 68.7305 61.3613 64.8633 59.623L62.7539 58.7539C56.6016 56.1465 52.5586 53.0176 52.5586 46.2383C52.5586 39.9805 57.3047 35.1133 64.8633 35.1133C70.3125 35.1133 74.1797 37.0254 76.8164 41.8926L70.3125 46.0645C68.9062 43.457 67.3242 42.4141 64.8633 42.4141C62.4023 42.4141 60.8203 43.9785 60.8203 46.0645C60.8203 48.498 62.4023 49.541 66.0938 51.1055L68.2031 51.9746C75.4102 55.1035 79.4531 58.0586 79.4531 65.1855C79.4531 72.6602 73.4766 76.832 65.3906 76.832C57.4805 76.832 52.3828 73.1816 49.9219 68.3145L56.9531 64.3164ZM27.0703 65.0117C28.4766 67.2715 29.5312 69.3574 32.5195 69.3574C35.332 69.3574 37.0898 68.3145 37.0898 64.1426V35.2871H45.5273V63.7949C45.5273 72.4863 40.4297 76.3105 32.8711 76.3105C26.0156 76.3105 22.1484 72.834 20.2148 68.6621L27.0703 65.0117Z" fill="black"/>
</g>
<defs>
<clipPath id="clip0_20_243">
<rect width="90" height="89" fill="white"/>
</clipPath>
</defs>
</svg>
