<svg width="143" height="144" viewBox="0 0 143 144" fill="none" xmlns="http://www.w3.org/2000/svg">
<path d="M2.23549 101.765H6.8249V83.5143L13.9302 99.4251C14.7681 101.351 15.9155 102.032 18.1666 102.032C20.4177 102.032 21.5215 101.351 22.3594 99.4251L29.4647 83.5143V101.765H34.0541V83.5446C34.0541 81.7671 33.348 80.9065 31.8912 80.4633C28.4045 79.3675 26.0651 80.3159 25.006 82.6863L18.0336 98.389L11.2825 82.6851C10.267 80.3159 7.88399 79.3675 4.39725 80.4622C2.94044 80.9065 2.23438 81.766 2.23438 83.5435V101.765H2.23549ZM37.8715 86.9084H42.4598V96.9637C42.4174 97.5093 42.6341 98.7918 45.1478 98.8323C46.4303 98.8525 55.0483 98.8323 55.1287 98.8323V86.8589H59.7282C59.7494 86.8589 59.7237 103.187 59.7237 103.255C59.7483 107.282 54.7623 108.156 52.4631 108.224H37.971V105.114C37.9955 105.114 52.4531 105.118 52.4888 105.113C55.4438 104.799 55.0941 103.321 55.093 102.824V101.611H45.3388C40.8008 101.569 37.9095 99.5748 37.8727 97.2798C37.8704 97.0694 37.9721 87.0096 37.8715 86.9084Z" fill="#00618A"/>
<path d="M63.2664 101.765H76.4626C78.0076 101.765 79.5091 101.44 80.7001 100.878C82.6853 99.9596 83.6561 98.7153 83.6561 97.0841V93.7068C83.6561 92.3737 82.5535 91.1283 80.3906 90.3003C79.2433 89.8548 77.83 89.6197 76.4615 89.6197H70.9001C69.0467 89.6197 68.1641 89.0572 67.944 87.813C67.9005 87.6645 67.9004 87.5463 67.9004 87.3978V85.2941C67.9004 85.176 67.9005 85.0567 67.944 84.9093C68.1641 83.961 68.6501 83.6943 70.2834 83.5458L70.7247 83.5166H83.8327V80.4363H70.9459C69.0925 80.4363 68.1217 80.5545 67.2391 80.8211C64.5031 81.6806 63.3099 83.043 63.3099 85.4133V88.1088C63.3099 90.1833 65.6504 91.9608 69.5773 92.376C70.0198 92.4041 70.4599 92.4356 70.9012 92.4356H75.6683C75.8448 92.4356 76.0213 92.4356 76.1542 92.4637C77.611 92.5818 78.2277 92.8496 78.6701 93.3817C78.9349 93.6483 79.0221 93.9161 79.0221 94.2108V96.9075C79.0221 97.2326 78.802 97.6477 78.3607 98.0032C77.9641 98.3587 77.3016 98.5961 76.419 98.6557L75.933 98.685H63.2664V101.765ZM112.29 96.4035C112.29 99.5726 114.629 101.35 119.35 101.707C119.792 101.736 120.233 101.765 120.674 101.765H132.635V98.685H120.587C117.895 98.685 116.88 98.0032 116.88 96.3731V80.4341H112.291V96.4035H112.29ZM86.5854 96.5632V85.5776C86.5854 82.7876 88.5316 81.0945 92.3791 80.5601C92.7769 80.5005 93.2204 80.4712 93.617 80.4712H102.33C102.772 80.4712 103.17 80.5005 103.611 80.5601C107.459 81.0945 109.406 82.7865 109.406 85.5776V96.5632C109.406 98.829 108.579 100.039 106.675 100.829L111.197 104.939H105.867L102.209 101.613L98.527 101.848H93.617C92.7769 101.848 91.8932 101.73 90.9201 101.463C88.0009 100.662 86.5854 99.117 86.5854 96.5632ZM91.539 96.2966C91.539 96.4451 91.5826 96.5947 91.6273 96.7724C91.892 98.0493 93.0874 98.7615 94.8995 98.7615H99.0689L95.2391 95.2796H100.569L103.909 98.3171C104.525 97.9852 104.93 97.4812 105.072 96.8321C105.115 96.6836 105.115 96.5351 105.115 96.3866V85.8476C105.115 85.7295 105.115 85.5798 105.072 85.4313C104.806 84.2433 103.611 83.5616 101.843 83.5616H94.8984C92.8651 83.5616 91.5379 84.4526 91.5379 85.8476V96.2966H91.539Z" fill="#E48E00"/>
<path d="M136.672 75.321C133.851 75.2434 131.696 75.5078 129.853 76.2897C129.329 76.5124 128.494 76.518 128.41 77.1784C128.697 77.4833 128.741 77.9367 128.97 78.3102C129.411 79.0268 130.153 79.9875 130.816 80.4904C131.539 81.0405 132.285 81.63 133.063 82.107C134.442 82.9553 135.984 83.439 137.315 84.2873C138.098 84.789 138.875 85.419 139.641 85.9849C140.019 86.2628 140.272 86.6982 140.765 86.8725V86.7927C140.506 86.4619 140.439 86.0074 140.203 85.6609L139.159 84.6102C138.139 83.2467 136.845 82.0508 135.468 81.0563C134.371 80.2632 131.915 79.191 131.457 77.9052L131.377 77.8253C132.154 77.7364 133.066 77.4529 133.783 77.2594C134.99 76.9332 136.068 77.0175 137.314 76.6935L138.998 76.2075V75.8858C138.369 75.2355 137.919 74.3738 137.233 73.7854C135.438 72.2453 133.476 70.7063 131.457 69.4215C130.338 68.7105 128.954 68.2482 127.766 67.6452C127.368 67.4415 126.667 67.3369 126.402 66.9983C125.777 66.1984 125.439 65.1848 124.957 64.2522C123.952 62.3003 122.962 60.1673 122.069 58.1119C121.462 56.7113 121.064 55.3298 120.305 54.0732C116.662 48.042 112.741 44.4015 106.667 40.824C105.374 40.0624 103.818 39.7632 102.175 39.3705L99.5269 39.2085C98.9895 38.9824 98.4287 38.3187 97.9226 37.9969C95.9094 36.7167 90.748 33.9323 89.2577 37.5942C88.317 39.9049 90.6653 42.1594 91.5043 43.3305C92.0931 44.1518 92.8483 45.072 93.2695 45.9957C93.5466 46.6032 93.5935 47.2118 93.8314 47.8542C94.4135 49.4359 94.9218 51.1583 95.6759 52.6197C96.0569 53.3599 96.4781 54.1395 96.9596 54.801C97.2545 55.206 97.7617 55.386 97.841 56.0127C97.3461 56.7102 97.3171 57.7947 97.0389 58.6778C95.7854 62.6592 96.258 67.608 98.0823 70.5544C98.6421 71.46 99.9603 73.3995 101.772 72.6548C103.358 72.0045 103.005 69.9897 103.458 68.211C103.561 67.8094 103.497 67.5124 103.698 67.2424V67.3234L105.143 70.2315C106.212 71.9652 108.108 73.7753 109.716 74.9982C110.549 75.6315 111.206 76.7284 112.283 77.0985V77.0164H112.204C111.994 76.689 111.668 76.554 111.4 76.2897C110.772 75.6698 110.074 74.9003 109.556 74.1893C108.093 72.1913 106.802 70.0032 105.624 67.7262C105.063 66.6394 104.574 65.4402 104.101 64.3332C103.917 63.9068 103.92 63.261 103.54 63.0417C103.019 63.8517 102.256 64.5075 101.854 65.4649C101.213 66.9949 101.13 68.8613 100.892 70.7963L100.731 70.8762C99.6129 70.605 99.2208 69.4463 98.8052 68.4529C97.755 65.9408 97.5595 61.8942 98.4845 59.0018C98.7236 58.2525 99.8039 55.8957 99.366 55.2038C99.1571 54.5142 98.4678 54.1159 98.0835 53.5872C97.6064 52.9358 97.1294 52.0785 96.7998 51.3248C95.9396 49.3662 95.5385 47.1668 94.6347 45.1857C94.2012 44.2384 93.4706 43.281 92.8695 42.4395C92.2048 41.5058 91.4597 40.8195 90.9435 39.6923C90.7603 39.2918 90.5112 38.6494 90.7826 38.2377C90.8687 37.9598 90.9927 37.8439 91.2653 37.7528C91.73 37.3917 93.026 37.8732 93.5108 38.0757C94.7978 38.6145 95.8714 39.1264 96.9618 39.8532C97.4847 40.203 98.0131 40.878 98.6465 41.0648H99.3682C100.498 41.3258 101.763 41.1447 102.818 41.4675C104.684 42.039 106.355 42.9267 107.872 43.8919C112.496 46.8327 116.276 51.0177 118.863 56.0104C119.279 56.8148 119.46 57.5809 119.825 58.4337C120.565 60.1527 121.496 61.9223 122.231 63.6042C122.965 65.2815 123.682 66.9747 124.719 68.3708C125.265 69.1043 127.372 69.498 128.329 69.9053C129.001 70.191 130.1 70.4892 130.736 70.8739C131.95 71.6119 133.127 72.4905 134.266 73.2983C134.834 73.7055 136.585 74.5909 136.672 75.321ZM100.812 44.5422C100.224 44.5309 99.8073 44.6074 99.3671 44.7042V44.784H99.4476C99.728 45.3657 100.223 45.7392 100.57 46.2387L101.374 47.9352L101.453 47.8553C101.95 47.5032 102.177 46.9395 102.175 46.0778C101.975 45.8663 101.946 45.6019 101.774 45.351C101.546 45.0135 101.101 44.8245 100.812 44.5422Z" fill="#00618A"/>
</svg>
