<svg width="127" height="128" viewBox="0 0 127 128" fill="none" xmlns="http://www.w3.org/2000/svg">
<path d="M54.9543 66.469H63.2222L58.8496 59.379L50.8248 72.198H47.1726L56.9337 56.8C57.3584 56.178 58.0648 55.802 58.8496 55.802C59.6086 55.802 60.3161 56.165 60.7268 56.774L70.5257 72.198H66.8734L65.151 69.333H56.7789L54.9543 66.469ZM92.8906 69.333V55.958H89.792V70.643C89.792 71.045 89.9468 71.434 90.2424 71.732C90.5381 72.03 90.937 72.198 91.3745 72.198H105.507L107.334 69.333H92.8906ZM41.6173 66.936C44.6266 66.936 47.0704 64.487 47.0704 61.454C47.0704 58.421 44.6276 55.958 41.6173 55.958H28.0591V72.199H31.1577V58.822H41.4119C42.8526 58.822 44.0095 60.002 44.0095 61.453C44.0095 62.904 42.8516 64.084 41.4119 64.084L32.6747 64.071L41.9259 72.198H46.4284L40.2034 66.935H41.6173V66.936ZM8.98823 72.198C4.54026 72.198 0.929688 68.569 0.929688 64.084C0.929688 59.599 4.53926 55.957 8.98823 55.957H18.3535C22.8035 55.957 26.411 59.6 26.411 64.084C26.411 68.568 22.8035 72.198 18.3535 72.198H8.98823ZM18.1451 69.333C21.0274 69.333 23.3621 66.987 23.3621 64.084C23.3621 61.181 21.0274 58.821 18.1451 58.821H9.19461C6.31528 58.821 3.97967 61.18 3.97967 64.084C3.97967 66.987 6.31528 69.333 9.19461 69.333H18.1451ZM76.9957 72.198C72.5468 72.198 68.9332 68.569 68.9332 64.084C68.9332 59.599 72.5468 55.957 76.9957 55.957H88.1201L86.3054 58.821H77.2021C74.3208 58.821 71.9792 61.18 71.9792 64.084C71.9792 66.987 74.3208 69.333 77.2021 69.333H88.3771L86.5515 72.198H76.9957ZM114.894 69.333C112.516 69.333 110.496 67.726 109.879 65.509H123.125L124.95 62.645H109.879C110.496 60.442 112.516 58.821 114.894 58.821H123.986L125.825 55.957H114.688C110.239 55.957 106.625 59.6 106.625 64.084C106.625 68.568 110.239 72.198 114.688 72.198H124.244L126.07 69.333H114.894Z" fill="#EA1B22"/>
</svg>
