<svg width="137" height="121" viewBox="0 0 137 121" fill="none" xmlns="http://www.w3.org/2000/svg">
<path d="M14.3401 101.565H8.37615V96.0817H14.6756C16.9803 96.0817 18.1352 97.0085 18.1352 98.8659C18.1352 100.665 16.874 101.565 14.3517 101.565H14.3401ZM18.646 96.0302C17.8266 95.3608 16.6819 95.0261 15.2095 95.0261L6.65149 95.0699V108.2H8.37615L8.36079 102.616H14.7281C16.3247 102.616 17.5833 102.281 18.4988 101.612C19.4143 100.942 19.8752 100.015 19.8752 98.8273C19.8752 97.6392 19.4655 96.7124 18.646 96.043V96.0302ZM29.8071 105.422C29.636 105.859 29.3539 106.244 28.9889 106.538C28.2168 107.225 27.0389 107.568 25.4551 107.568C24.0236 107.568 22.925 107.233 22.1594 106.564C21.3937 105.894 21.0096 105.001 21.0096 103.88C21.0096 103.297 21.1095 102.778 21.3105 102.326C21.5068 101.88 21.8051 101.488 22.1811 101.18C22.975 100.521 24.0633 100.192 25.4551 100.192C28.5331 100.192 30.0721 101.421 30.0721 103.878C30.0721 104.463 29.9825 104.975 29.8096 105.418L29.8071 105.422ZM30.122 100.578C29.0721 99.7026 27.5152 99.265 25.4551 99.265C23.5089 99.265 22.0032 99.7117 20.943 100.604C19.9853 101.412 19.5064 102.502 19.5064 103.873C19.5064 105.244 20.0007 106.336 20.9917 107.172C21.552 107.631 22.2026 107.965 22.9007 108.152C23.6267 108.354 24.4794 108.455 25.4576 108.455C27.5062 108.455 29.0683 108.022 30.1399 107.157C31.0977 106.368 31.5765 105.273 31.5765 103.872C31.5765 102.462 31.0925 101.362 30.1233 100.573L30.122 100.578ZM43.1639 105.8C43.1639 107.566 41.4303 108.448 37.9618 108.448C36.9016 108.448 36.0092 108.386 35.2832 108.264C34.5572 108.142 33.9683 107.937 33.5163 107.654C33.1668 107.438 32.8761 107.156 32.6841 106.808C32.4668 106.402 32.3307 105.957 32.2833 105.498L33.8966 105.485C33.8966 106.18 34.1782 106.691 34.7442 107.021C35.3498 107.416 36.424 107.613 37.9643 107.613C40.3881 107.613 41.6006 107.059 41.6006 105.939C41.6006 105.292 41.1947 104.845 40.3817 104.601C40.2152 104.553 39.237 104.429 37.4406 104.214L34.0835 103.674C33.1271 103.326 32.6495 102.702 32.6495 101.8C32.6495 100.917 33.0771 100.259 33.9324 99.8275C34.3549 99.6473 34.8825 99.5108 35.5162 99.4117C36.15 99.3126 36.8837 99.2637 37.7185 99.2637C41.0564 99.2637 42.7119 100.219 42.7119 102.13H41.1755C41.1755 100.788 40.0027 100.116 37.6545 100.116C36.4612 100.116 35.57 100.252 34.9836 100.524C34.3972 100.796 34.104 101.214 34.104 101.778C34.104 102.293 34.4881 102.684 35.2922 102.918C35.7557 103.04 36.8209 103.182 38.488 103.34C39.9809 103.463 41.0039 103.636 41.5609 103.862C42.621 104.238 43.1511 104.876 43.1511 105.777L43.1639 105.8ZM49.4992 108.192L48.8424 108.276L48.4327 108.304C47.3827 108.304 46.6248 108.165 46.16 107.887C45.6952 107.609 45.4635 107.122 45.4635 106.426V100.44H43.5493V99.5598H45.4481L45.4635 96.7317H46.9359V99.5598H49.4966V100.454L46.9359 100.442V106.265C46.9359 106.699 47.0614 106.999 47.3149 107.163C47.5684 107.328 48.0191 107.411 48.6657 107.411C48.7579 107.42 48.8616 107.417 48.973 107.402C49.0844 107.386 49.2547 107.35 49.4826 107.296L49.4979 108.195L49.4992 108.192ZM59.6743 106.207C59.259 106.514 58.7943 106.748 58.3005 106.897C57.7858 107.057 57.1942 107.136 56.5259 107.136C53.4492 107.136 51.9114 105.978 51.9114 103.661C51.9114 102.582 52.3045 101.736 53.0919 101.128C53.8794 100.519 54.9869 100.227 56.4171 100.227C57.8575 100.227 58.9522 100.535 59.6948 101.148C60.4374 101.761 60.8139 102.586 60.8139 103.62C60.8139 104.746 60.4336 105.615 59.6718 106.224L59.6743 106.207ZM62.2837 99.5816H60.8177L60.8023 101.062C60.1545 100.461 59.691 100.081 59.4131 99.9215C58.5899 99.5096 57.5246 99.3036 56.2173 99.3036C54.3019 99.3036 52.841 99.6898 51.832 100.501C50.8743 101.234 50.3955 102.294 50.3955 103.683C50.3955 104.368 50.5171 104.98 50.7591 105.52C50.9981 106.055 51.3612 106.526 51.818 106.892C52.8423 107.662 54.2558 108.046 56.1021 108.046C58.3171 108.046 59.892 107.493 60.819 106.373V107.918C60.819 108.896 60.481 109.65 59.7947 110.186C59.1084 110.721 58.0111 110.989 56.4657 110.989C55.0138 110.989 53.9792 110.806 53.3621 110.442C52.8986 110.161 52.5939 109.675 52.4044 108.984H50.891C51.0574 109.949 51.5056 110.649 52.2354 111.082C53.0804 111.579 54.5055 111.828 56.5144 111.828C60.3555 111.828 62.2761 110.526 62.2761 107.92V99.5533L62.2837 99.5816ZM70.2438 100.451C69.8353 100.388 69.4228 100.355 69.0095 100.353C66.5922 100.353 65.3835 101.563 65.3835 103.983V108.189H63.929L63.9137 99.5816L65.3861 99.5945V101.13H65.4629C65.6874 100.551 66.101 100.066 66.6357 99.7541C67.2221 99.4516 68.0954 99.2997 69.2605 99.2997H70.2464V100.452L70.2438 100.451ZM71.6113 103.326C71.7969 102.348 72.213 101.591 72.8609 101.054C73.2834 100.745 73.761 100.511 74.2949 100.355C74.8288 100.2 75.4319 100.124 76.0874 100.124C77.3934 100.124 78.4613 100.451 79.2884 101.104C80.1155 101.758 80.5303 102.499 80.5303 103.327H71.5933L71.6113 103.326ZM80.6737 100.672C80.159 100.201 79.5214 99.852 78.7583 99.6267C77.9952 99.4014 77.0938 99.2869 76.0862 99.2869C74.1656 99.2869 72.7021 99.6911 71.6509 100.499C70.5998 101.308 70.0761 102.407 70.0761 103.799C70.0761 105.19 70.5806 106.293 71.5895 107.111C72.6804 108.012 74.2207 108.462 76.2078 108.462C77.0016 108.462 77.734 108.38 78.41 108.205C79.0861 108.03 79.6738 107.81 80.177 107.51C81.063 106.93 81.6238 106.213 81.8607 105.363H80.2704C79.725 106.834 78.3665 107.57 76.195 107.57C74.6611 107.57 73.4806 107.21 72.6612 106.489C71.9506 105.871 71.5959 105.073 71.5959 104.091H82.095C82.095 102.631 81.6263 101.485 80.6891 100.656L80.6737 100.672Z" fill="#231F20"/>
<path d="M97.6388 104.659C97.6388 107.214 95.3802 108.492 90.8605 108.492C88.1525 108.492 86.1769 108.052 84.9323 107.171C83.9132 106.448 83.4036 105.343 83.4036 103.861H85.2217C85.2217 106.246 87.1 107.439 90.8592 107.439C92.6607 107.439 93.9641 107.182 94.7682 106.705C95.4468 106.274 95.7873 105.598 95.7873 104.678C95.7873 103.768 95.3238 103.129 94.3968 102.764C93.8847 102.567 92.589 102.318 90.5506 102.017C87.986 101.661 86.3254 101.304 85.561 100.949C84.4599 100.424 83.8965 99.5328 83.8965 98.2739C83.8965 97.1154 84.3651 96.2144 85.3024 95.6557C86.3113 95.0275 88.0424 94.7122 90.493 94.7122C94.9231 94.7122 97.1356 96.0535 97.1356 98.7373H95.3008C95.3008 96.7267 93.6568 95.7226 90.3688 95.7226C88.7197 95.7226 87.5136 95.9247 86.7505 96.3276C86.0283 96.7601 85.6685 97.3935 85.6685 98.2302C85.6685 99.1055 86.132 99.7195 87.059 100.076C87.5533 100.282 89.0052 100.569 91.4149 100.936C93.6811 101.245 95.2099 101.608 96.0037 102.021C97.0856 102.528 97.626 103.407 97.626 104.657L97.6388 104.659ZM112.414 105.963C111.717 106.468 110.938 106.846 110.111 107.081C109.256 107.33 108.297 107.467 107.235 107.467C105.059 107.467 103.321 106.936 101.986 105.871C100.65 104.807 99.9972 103.374 99.9972 101.601C99.9972 99.7543 100.659 98.3151 101.982 97.2828C103.304 96.2504 105.061 95.7355 107.247 95.7355C109.462 95.7355 111.206 96.2761 112.473 97.3536C113.107 97.841 113.616 98.4728 113.958 99.1969C114.291 99.901 114.437 100.703 114.437 101.604C114.437 103.442 113.768 104.895 112.427 105.964L112.414 105.963ZM113.394 106.834C114.341 106.224 115.043 105.485 115.496 104.617C115.949 103.75 116.177 102.747 116.177 101.612C116.177 99.5753 115.435 97.9431 113.952 96.7125C113.158 96.0367 112.2 95.5347 111.079 95.2064C109.957 94.8782 108.672 94.7134 107.233 94.7134C104.431 94.7134 102.233 95.3313 100.636 96.5722C99.0395 97.8131 98.2418 99.4904 98.2418 101.612C98.2171 102.578 98.4236 103.537 98.8441 104.406C99.2645 105.276 99.8866 106.031 100.658 106.609C102.267 107.875 104.471 108.509 107.261 108.509C108.216 108.519 109.171 108.451 110.116 108.307C110.928 108.171 111.619 107.966 112.186 107.686L114.875 109.385L115.997 108.446L113.395 106.837L113.394 106.834ZM129.788 108.173H117.359V95.043L119.067 95.0147V107.076H129.803L129.788 108.173Z" fill="#367FAF"/>
<path d="M86.4841 63.9176C86.9732 59.8177 86.8272 59.2166 89.8643 59.8808L90.6351 59.949C92.9705 60.0559 96.0126 59.5719 97.8205 58.7326C101.685 56.9305 103.975 53.9209 100.166 54.7113C91.4763 56.5134 90.8783 53.5553 90.8783 53.5553C100.055 39.8669 103.891 22.4892 100.58 18.2336C91.548 6.63179 75.9159 12.1193 75.6534 12.2609L75.5702 12.2763C73.8519 11.9185 71.9314 11.7048 69.7726 11.6687C65.8419 11.6044 62.8561 12.705 60.5924 14.4311C60.5924 14.4311 32.7058 2.8795 34.0016 28.9589C34.2781 34.494 41.9117 70.9381 51.0152 59.9336C54.3441 55.9097 57.5579 52.5062 57.5579 52.5062C59.1545 53.5746 61.0661 54.1153 63.0712 53.9222L63.2248 53.7896C63.1762 54.2891 63.1992 54.7782 63.2863 55.3562C60.9406 57.9911 61.6307 58.4533 56.9407 59.4238C52.197 60.4073 54.9843 62.1566 56.8037 62.6136C59.0098 63.1671 64.1147 63.9523 67.5614 59.0994L67.4244 59.653C68.3463 60.3931 68.2823 64.9718 68.4129 68.2427C68.5435 71.5135 68.7611 74.5669 69.4372 76.3677C70.1132 78.1685 70.884 82.8039 77.0465 81.4754C82.1974 80.3658 86.1345 78.7684 86.4956 63.9124" fill="#231F20"/>
<path d="M86.4841 63.9176C86.9732 59.8177 86.8272 59.2166 89.8643 59.8808L90.6351 59.949C92.9705 60.0559 96.0126 59.5719 97.8205 58.7326C101.685 56.9305 103.975 53.9209 100.166 54.7113C91.4763 56.5134 90.8783 53.5553 90.8783 53.5553C100.055 39.8669 103.891 22.4892 100.58 18.2336C91.548 6.63179 75.9159 12.1193 75.6534 12.2609L75.5702 12.2763C73.8519 11.9185 71.9314 11.7048 69.7726 11.6687C65.8419 11.6044 62.8561 12.705 60.5924 14.4311C60.5924 14.4311 32.7058 2.8795 34.0016 28.9589C34.2781 34.494 41.9117 70.9381 51.0152 59.9336C54.3441 55.9097 57.5579 52.5062 57.5579 52.5062C59.1545 53.5746 61.0661 54.1153 63.0712 53.9222L63.2248 53.7896C63.1762 54.2891 63.1992 54.7782 63.2863 55.3562C60.9406 57.9911 61.6307 58.4533 56.9407 59.4238C52.197 60.4073 54.9843 62.1566 56.8037 62.6136C59.0098 63.1671 64.1147 63.9523 67.5614 59.0994L67.4244 59.653C68.3463 60.3931 68.2823 64.9718 68.4129 68.2427C68.5435 71.5135 68.7611 74.5669 69.4372 76.3677C70.1132 78.1685 70.884 82.8039 77.0465 81.4754C82.1974 80.3658 86.1345 78.7684 86.4956 63.9124" stroke="#231F20" stroke-width="5.046"/>
<path d="M100.168 54.7113C91.4764 56.5134 90.8784 53.5554 90.8784 53.5554C100.055 39.8656 103.891 22.488 100.581 18.2336C91.5493 6.63309 75.916 12.1193 75.6548 12.2609L75.5703 12.2763C73.852 11.9185 71.9315 11.7048 69.7702 11.6688C65.8394 11.6044 62.8562 12.705 60.5899 14.4312C60.5899 14.4312 32.7008 2.8808 33.9966 28.9589C34.2718 34.494 41.9054 70.9382 51.0102 59.9349C54.3391 55.911 57.5401 52.5075 57.5401 52.5075C59.1367 53.5759 61.0483 54.1166 63.0533 53.9235L63.2096 53.7909C63.1609 54.2904 63.1839 54.7795 63.2736 55.3575C60.9279 57.9924 61.6168 58.4546 56.928 59.4251C52.183 60.4086 54.9691 62.1579 56.7898 62.6149C58.9958 63.1684 64.1007 63.9536 67.5475 59.1008L67.4105 59.6543C68.3298 60.3944 68.9751 64.4685 68.8662 68.1603C68.7574 71.8521 68.687 74.3879 69.4104 76.369C70.1338 78.3501 70.8572 82.8052 77.0209 81.4767C82.1719 80.3671 84.8402 77.4915 85.2115 72.6952C85.4753 69.2841 86.0693 69.7887 86.1078 66.7405L86.5866 65.2988C87.1372 60.6776 86.6737 59.1844 89.8477 59.8795L90.6185 59.9478C92.9539 60.0546 96.0089 59.5706 97.8053 58.7313C101.668 56.9292 103.96 53.9196 100.151 54.71L100.168 54.7113Z" fill="#417BA2"/>
<path d="M75.624 12.1478C74.6573 12.4528 91.1485 6.08745 100.52 18.1257C103.829 22.3787 100.007 39.7563 90.8169 53.4474M67.9366 57.3618C67.6972 65.9631 67.9968 74.6108 68.8329 76.7296C69.669 78.8484 71.4628 82.9289 77.629 81.6018C82.7787 80.4922 84.6532 78.3451 85.4649 73.6029C86.0641 70.1273 87.219 60.4268 87.3663 58.4418L67.9366 57.3618ZM60.5617 14.2408C60.5617 14.2408 32.6533 2.78441 33.9516 28.8509C34.2282 34.386 41.8618 70.8315 50.9806 59.8269C54.3096 55.803 57.3185 52.6467 57.3185 52.6467L60.5617 14.2408Z" stroke="white" stroke-width="1.682" stroke-linecap="round" stroke-linejoin="round"/>
<path d="M90.8169 53.4461C90.8169 53.4461 91.4148 56.4067 100.106 54.602C103.914 53.8116 101.622 56.8212 97.7604 58.6246C94.5902 60.1049 87.4841 60.4821 87.3676 58.4392C87.068 53.1667 91.1063 54.768 90.8169 53.4473C90.5531 52.2579 88.7465 51.0891 87.5519 48.1774C86.5084 45.6351 73.2463 26.14 91.2305 29.0362C91.8898 28.8998 86.5404 11.8388 69.7099 11.562C52.8794 11.2853 53.4492 32.3663 53.4492 32.3663" stroke="white" stroke-width="1.682" stroke-linecap="round" stroke-linejoin="bevel"/>
<path d="M63.2288 55.2508C60.8831 57.8858 61.5733 58.3479 56.8832 59.3184C52.1395 60.3019 54.9268 62.0512 56.745 62.5082C58.9511 63.0617 64.0559 63.8495 67.5027 58.9941C68.5526 57.5163 67.4963 55.1581 66.0558 54.5557C65.3593 54.2661 64.4272 53.9018 63.2288 55.2508Z" stroke="white" stroke-width="1.682" stroke-linejoin="round"/>
<path d="M63.0738 55.2044C62.8382 53.6558 63.5808 51.8125 64.3759 49.6564C65.5718 46.4216 68.3322 43.1842 66.1236 32.9224C64.4783 25.2736 53.4428 31.3301 53.4351 32.3689C53.4274 33.4076 53.9472 37.6259 53.2507 42.538C52.3583 48.9484 57.3095 54.3728 63.0097 53.818" stroke="white" stroke-width="1.682" stroke-linecap="round" stroke-linejoin="round"/>
<path d="M60.4491 32.2104C60.3978 32.5644 61.0944 33.5105 61.9983 33.6367C62.9023 33.7628 63.6756 33.0252 63.7268 32.6712C63.778 32.3172 63.0815 31.9272 62.1776 31.7998C61.2736 31.6723 60.4977 31.8577 60.4491 32.2117V32.2104Z" fill="white" stroke="white" stroke-width="0.561"/>
<path d="M87.9938 31.4882C88.0424 31.8422 87.3485 32.7755 86.4445 32.9145C85.5406 33.0535 84.7672 32.3031 84.716 31.9491C84.6648 31.5951 85.3626 31.205 86.2678 31.0776C87.1731 30.9502 87.9451 31.1355 87.9964 31.4895L87.9938 31.4882Z" fill="white" stroke="white" stroke-width="0.28"/>
<path d="M91.2305 29.0361C91.379 31.814 90.6351 33.7088 90.5416 36.6656C90.4008 40.9649 92.58 45.8847 89.2997 50.8123" stroke="white" stroke-width="1.682" stroke-linecap="round" stroke-linejoin="round"/>
</svg>
