<svg width="104" height="115" viewBox="0 0 104 115" fill="none" xmlns="http://www.w3.org/2000/svg">
<g clip-path="url(#clip0_20_223)">
<path d="M15.5867 95.9606C15.5867 91.3822 14.2358 89.0316 11.5331 88.9036C10.4606 88.8536 9.3892 89.0236 8.38649 89.4031C7.57089 89.6864 7.02292 89.9635 6.73406 90.2458V101.173C8.46295 102.222 9.99856 102.708 11.3366 102.642C14.1689 102.461 15.5867 100.228 15.5867 95.9711V95.9606ZM18.9213 96.1495C18.9213 98.4749 18.3563 100.406 17.2221 101.942C15.9562 103.68 14.2018 104.574 11.96 104.623C10.2694 104.676 8.52773 104.164 6.73512 103.091V113.022L3.83594 112.023V89.9792C4.3117 89.4157 4.92446 88.9299 5.66572 88.5101C7.39142 87.5384 9.48882 87.0388 11.9558 87.0147L11.9983 87.0546C14.2539 87.0273 15.9913 87.9214 17.2019 89.7357C18.3404 91.4 18.9011 93.5324 18.9011 96.1401L18.9213 96.1495ZM36.6381 102.669C36.6381 105.789 36.3142 107.948 35.6675 109.15C35.0207 110.353 33.7804 111.312 31.9527 112.025C30.4713 112.589 28.8698 112.896 27.1505 112.949L26.6726 111.184C28.4206 110.953 29.6514 110.724 30.3651 110.494C31.7701 110.035 32.7333 109.34 33.2642 108.396C33.689 107.626 33.8982 106.158 33.8982 103.986V103.257C31.9155 104.128 29.8383 104.558 27.6645 104.558C26.2912 104.578 24.9551 104.117 23.8934 103.256C22.6753 102.309 22.0668 101.108 22.0668 99.6523V87.9854L24.966 87.0263V98.7583C24.966 100.011 25.3844 100.977 26.2223 101.655C27.0602 102.332 28.1339 102.657 29.4741 102.633C30.8143 102.608 32.2278 102.108 33.74 101.137V87.4502H36.6392V102.671L36.6381 102.669ZM47.9588 104.471L47.003 104.511C45.3633 104.511 44.0847 104.133 43.1714 103.378C42.2581 102.622 41.8046 101.576 41.8046 100.243V89.2111H39.8187V87.4481H41.8046V82.7679L44.7006 81.771V87.446H47.9588V89.2089H44.7091V100.164C44.7091 101.216 45.0012 101.948 45.5842 102.395C46.0854 102.754 46.8819 102.959 47.9662 103.011V104.48L47.9588 104.471ZM65.511 104.24H62.6118V93.4317C62.6118 92.3319 62.3464 91.3853 61.8154 90.5941C61.5451 90.1699 61.1674 89.8229 60.7196 89.5875C60.2717 89.352 59.7694 89.2364 59.2624 89.252C57.9328 89.252 56.2708 89.9289 54.2764 91.2836V104.243H51.3772V78.4015L54.2764 77.52V89.2761C56.1285 87.9749 58.1526 87.3212 60.3509 87.3212C61.8865 87.3212 63.1301 87.8207 64.0816 88.8165C65.0331 89.8124 65.5121 91.0538 65.5121 92.5365V104.23L65.511 104.24ZM80.9224 95.5304C80.9224 93.7717 80.5762 92.3193 79.888 91.1702C79.0703 89.7693 77.798 89.0316 76.0787 88.9666C72.9002 89.145 71.3147 91.3445 71.3147 95.5608C71.3147 97.4948 71.6333 99.1098 72.3108 100.406C73.1604 102.057 74.4348 102.872 76.1361 102.844C79.3273 102.82 80.9224 100.387 80.9224 95.5408V95.5304ZM84.1083 95.5493C84.1083 98.0531 83.4456 100.137 82.1224 101.8C80.6675 103.663 78.6551 104.598 76.0904 104.598C73.547 104.598 71.5643 103.654 70.1434 101.8C68.8456 100.136 68.1999 98.0541 68.1999 95.5493C68.1999 93.1956 68.9008 91.2154 70.3027 89.6046C71.7841 87.8941 73.7328 87.0368 76.1393 87.0368C78.5457 87.0368 80.5071 87.8951 82.0173 89.6046C83.4191 91.2164 84.12 93.1956 84.12 95.5493H84.1083ZM100.718 104.251H97.8077V92.8272C97.8077 91.5742 97.418 90.5962 96.6374 89.8911C95.8569 89.1859 94.8172 88.8491 93.5195 88.8763C92.1432 88.9005 90.8327 89.336 89.5902 90.1775V104.239H86.691V89.8207C88.3583 88.6475 89.895 87.8815 91.2968 87.5121C92.62 87.1784 93.7871 87.0127 94.7928 87.0127C95.4809 87.0127 96.1277 87.0756 96.7362 87.2057C97.8746 87.4596 98.8007 87.9319 99.5154 88.6245C100.312 89.3905 100.708 90.3097 100.708 91.3843V104.229L100.718 104.251Z" fill="#646464"/>
<path d="M30.4032 11.0928C30.4032 6.28611 31.7374 3.67126 39.1037 2.42611C44.1048 1.57931 50.5171 1.47346 56.4985 2.42611C61.2227 3.17941 65.199 6.57897 65.199 11.0928V26.9509C65.199 31.602 61.3385 35.4119 56.4985 35.4119H39.1037C33.2002 35.4119 28.2246 40.2746 28.2246 45.7722V53.3807H22.2436C17.1845 53.3807 14.2389 49.8566 13.0015 44.9253C11.3324 38.3005 11.4033 34.3534 13.0015 28.0087C14.3872 22.4738 18.8149 19.5534 23.8744 19.5534H47.8042V17.4364H30.4029V11.0924L30.4032 11.0928Z" fill="url(#paint0_linear_20_223)"/>
<path d="M65.1992 61.8421C65.1992 66.6488 60.8811 69.0833 56.4987 70.2974C49.9056 72.1279 44.6142 71.8478 39.1039 70.2974C34.5021 69.0025 30.4034 66.3563 30.4034 61.8421V45.984C30.4034 41.42 34.3414 37.523 39.1039 37.523H56.4987C62.2927 37.523 67.3778 32.6856 67.3778 26.951V19.5542H73.9C78.9658 19.5542 81.3507 23.1902 82.6005 28.0095C84.3405 34.7028 84.4179 39.7084 82.6005 44.9262C80.8412 49.9943 78.9592 53.3815 73.9 53.3815H47.8044V55.4985H65.1992V61.8424V61.8421Z" fill="url(#paint1_linear_20_223)"/>
<path d="M34.7534 10.0407C34.7534 8.28504 36.2099 6.86523 38.0149 6.86523C39.8129 6.86523 41.2764 8.28469 41.2764 10.0407C41.2764 11.7908 39.8133 13.2099 38.0149 13.2099C36.2107 13.2099 34.7534 11.7904 34.7534 10.0407ZM54.326 62.8946C54.326 61.1445 55.7891 59.7254 57.5875 59.7254C59.3918 59.7254 60.849 61.1449 60.849 62.8946C60.849 64.6503 59.3925 66.0701 57.5875 66.0701C55.7895 66.0701 54.326 64.6507 54.326 62.8946Z" fill="white"/>
</g>
<defs>
<linearGradient id="paint0_linear_20_223" x1="65.1994" y1="21.8218" x2="11.7768" y2="21.3821" gradientUnits="userSpaceOnUse">
<stop stop-color="#366A96"/>
<stop offset="1" stop-color="#3679B0"/>
</linearGradient>
<linearGradient id="paint1_linear_20_223" x1="83.9344" y1="45.5609" x2="-21.817" y2="45.5609" gradientUnits="userSpaceOnUse">
<stop stop-color="#FFC836"/>
<stop offset="1" stop-color="#FFE873"/>
</linearGradient>
<clipPath id="clip0_20_223">
<rect width="104" height="115" fill="white"/>
</clipPath>
</defs>
</svg>
