<svg width="97" height="106" viewBox="0 0 97 106" fill="none" xmlns="http://www.w3.org/2000/svg">
<path d="M48.4998 44.0436C52.3921 44.0436 55.5475 40.8882 55.5475 36.9959C55.5475 33.1036 52.3921 29.9482 48.4998 29.9482C44.6075 29.9482 41.4521 33.1036 41.4521 36.9959C41.4521 40.8882 44.6075 44.0436 48.4998 44.0436Z" fill="#61DAFB"/>
<path d="M48.4999 62.9132C54.0319 68.2936 59.4882 71.4765 63.8835 71.4765C65.3233 71.4765 66.6874 71.1733 67.8241 70.4913C71.7647 68.2179 73.2046 62.5343 71.8405 54.4257C71.6132 52.9858 71.3101 51.546 70.9311 50.0304C72.4468 49.5757 73.8108 49.121 75.1749 48.6663C82.8288 45.7108 87.0726 41.6187 87.0726 37.1476C87.0726 32.6007 82.8288 28.5085 75.1749 25.6288C73.8108 25.0983 72.4468 24.6437 70.9311 24.2647C71.3101 22.7491 71.6132 21.3093 71.8405 19.8694C73.1288 11.6093 71.689 5.8499 67.7483 3.57647C66.6116 2.89443 65.2476 2.59131 63.8077 2.59131C59.4882 2.59131 53.9562 5.77412 48.4241 11.1546C42.9679 5.77412 37.5116 2.59131 33.1163 2.59131C31.6765 2.59131 30.3124 2.89443 29.1757 3.57647C25.2351 5.8499 23.7952 11.5335 25.1593 19.6421C25.3866 21.0819 25.6897 22.5218 26.0687 24.0374C24.553 24.4921 23.189 24.9468 21.8249 25.4015C14.171 28.3569 9.92725 32.4491 9.92725 36.9202C9.92725 41.4671 14.171 45.5593 21.8249 48.439C23.189 48.9694 24.553 49.4241 26.0687 49.803C25.6897 51.3187 25.3866 52.7585 25.1593 54.1983C23.871 62.3069 25.3108 68.0663 29.1757 70.264C30.3124 70.946 31.6765 71.2491 33.1163 71.2491C37.5116 71.4007 42.9679 68.2179 48.4999 62.9132ZM44.2562 52.6827C45.6202 52.7585 47.0601 52.7585 48.4999 52.7585C49.9397 52.7585 51.3796 52.7585 52.7436 52.6827C51.3796 54.5015 49.9397 56.1687 48.4999 57.7601C47.0601 56.1687 45.6202 54.5015 44.2562 52.6827ZM34.8593 44.8772C35.6171 46.1655 36.2991 47.378 37.1327 48.5905C34.7835 48.2874 32.5858 47.9085 30.464 47.4538C31.146 45.4077 31.9038 43.2858 32.8132 41.164C33.4194 42.3765 34.1015 43.6647 34.8593 44.8772ZM30.464 26.614C32.5858 26.1593 34.7835 25.7804 37.1327 25.4772C36.3749 26.6897 35.6171 27.9022 34.8593 29.1905C34.1015 30.4788 33.4194 31.6913 32.8132 32.9796C31.828 30.7819 31.0702 28.6601 30.464 26.614ZM34.6319 36.996C35.6171 34.9499 36.678 32.9038 37.8905 30.8577C39.0272 28.8874 40.3155 26.9171 41.6038 24.9468C43.8772 24.7952 46.1507 24.7194 48.4999 24.7194C50.9249 24.7194 53.1983 24.7952 55.396 24.9468C56.7601 26.9171 57.9726 28.8874 59.1093 30.8577C60.3218 32.9038 61.3827 34.9499 62.3679 36.996C61.3827 39.0421 60.3218 41.0882 59.1093 43.1343C57.9726 45.1046 56.6843 47.0749 55.396 49.0452C53.1226 49.1968 50.8491 49.2726 48.4999 49.2726C46.0749 49.2726 43.8015 49.1968 41.6038 49.0452C40.2397 47.0749 39.0272 45.1046 37.8905 43.1343C36.678 41.0882 35.6171 39.0421 34.6319 36.996ZM64.2624 32.9038L62.2163 29.1147C61.4585 27.8265 60.7765 26.614 59.9429 25.4015C62.2921 25.7046 64.4897 26.0835 66.6116 26.5382C65.9296 28.6601 65.1718 30.7819 64.2624 32.9038ZM64.2624 41.0882C65.1718 43.2101 65.9296 45.3319 66.6116 47.378C64.4897 47.8327 62.2921 48.2116 59.9429 48.5147C60.7007 47.3022 61.4585 46.0897 62.2163 44.8015C62.8983 43.6647 63.5804 42.3765 64.2624 41.0882ZM66.0054 67.3843C65.3991 67.7632 64.6413 67.9147 63.8077 67.9147C60.0944 67.9147 55.4718 64.8835 50.9249 60.3366C53.1226 57.9874 55.2444 55.3351 57.3663 52.3796C60.928 52.0765 64.3382 51.546 67.521 50.7882C67.8999 52.1522 68.1272 53.5163 68.3546 54.8804C69.4155 61.3218 68.5819 65.9444 66.0054 67.3843ZM69.946 27.4476C78.4335 29.8726 83.5108 33.5858 83.5108 36.996C83.5108 39.9515 80.0249 42.9069 73.8866 45.2562C72.6741 45.7108 71.3101 46.1655 69.946 46.5444C68.9608 43.4374 67.7483 40.2546 66.2327 36.996C67.7483 33.7374 69.0366 30.5546 69.946 27.4476ZM63.8835 6.07725C64.7171 6.07725 65.3991 6.22881 66.0811 6.60772C68.5819 8.04756 69.4913 12.5944 68.4304 19.1116C68.203 20.3999 67.8999 21.764 67.5968 23.2038C64.414 22.5218 61.0038 21.9913 57.4421 21.6124C55.396 18.6569 53.1983 16.0046 51.0007 13.6554C55.5476 9.18428 60.1702 6.07725 63.8835 6.07725ZM52.7436 21.3093C51.3796 21.2335 49.9397 21.2335 48.4999 21.2335C47.0601 21.2335 45.6202 21.2335 44.2562 21.3093C45.6202 19.4905 47.0601 17.8233 48.4999 16.2319C49.9397 17.8233 51.3796 19.5663 52.7436 21.3093ZM30.9944 6.60772C31.6007 6.22881 32.3585 6.07725 33.1921 6.07725C36.9054 6.07725 41.528 9.1085 46.0749 13.6554C43.8772 16.0046 41.7554 18.6569 39.6335 21.6124C36.0718 21.9155 32.6616 22.446 29.4788 23.2038C29.0999 21.8397 28.8726 20.4757 28.6452 19.1116C27.5843 12.6702 28.4179 8.12334 30.9944 6.60772ZM27.0538 46.5444C18.5663 44.1194 13.489 40.4062 13.489 36.996C13.489 34.0405 16.9749 31.0851 23.1132 28.7358C24.3257 28.2812 25.6897 27.8265 27.0538 27.4476C28.039 30.5546 29.2515 33.7374 30.7671 36.996C29.2515 40.2546 27.9632 43.5132 27.0538 46.5444ZM28.6452 54.8804C28.8726 53.5921 29.1757 52.228 29.4788 50.7882C32.6616 51.4702 36.0718 52.0007 39.6335 52.3796C41.6796 55.3351 43.8772 57.9874 46.0749 60.3366C41.528 64.8077 36.9054 67.9147 33.1921 67.9147C32.3585 67.9147 31.6765 67.7632 30.9944 67.3843C28.4179 65.9444 27.5843 61.3218 28.6452 54.8804ZM25.4624 86.1022C27.1296 84.0562 27.2054 81.7827 26.296 79.5093C25.3866 77.2358 23.4921 76.1749 21.1429 76.0991C18.339 76.0233 15.4593 76.0991 12.6554 76.0991H12.1249V95.7265H14.3983V88.2999H17.9601C18.4147 88.2999 18.7937 88.4515 19.021 88.8304L23.5679 95.878C23.6437 96.0296 23.871 96.2569 24.0226 96.2569H26.978C25.1593 93.453 23.4163 90.8007 21.5976 88.0726C23.189 87.8452 24.553 87.3148 25.4624 86.1022ZM14.3983 85.9507V78.4483H15.2319C16.9749 78.4483 18.7937 78.3726 20.5366 78.5241C22.5827 78.5999 24.0226 80.1913 24.0226 82.2374C24.0226 84.2835 22.3554 85.8749 20.3093 85.9507C18.4905 86.0265 16.6718 85.9507 14.3983 85.9507ZM43.7257 86.9358C42.5132 81.6312 37.6632 80.2671 33.9499 81.9343C31.0702 83.2226 29.7819 85.7233 29.7062 88.8304C29.6304 91.1796 30.3124 93.3015 32.1312 94.8929C34.1772 96.7116 36.678 96.939 39.2546 96.4843C40.6944 96.1812 41.9827 95.4991 42.9679 94.4382C42.589 93.9077 42.2101 93.3773 41.8311 92.9226C39.7093 94.7413 37.3601 95.3476 34.7835 94.1351C33.1163 93.3015 32.2827 91.2554 32.1312 89.7397H43.8772V88.7546C43.953 88.0726 43.8772 87.4663 43.7257 86.9358ZM32.2827 88.1483C32.0554 85.8749 34.3288 83.4499 36.8296 83.4499C39.7093 83.3741 41.528 85.1171 41.6038 88.1483H32.2827ZM55.5476 81.5554C54.4108 81.328 53.1983 81.2523 52.0616 81.328C50.2429 81.4796 48.6515 82.3132 47.3632 83.6772C47.7421 84.2077 48.0452 84.7382 48.4999 85.3444C48.6515 85.1929 48.803 85.0413 48.9546 84.9655C50.1671 83.8288 51.6069 83.2226 53.3499 83.3741C54.714 83.4499 56.0022 83.9046 56.3811 85.2687C56.6843 86.3296 56.6085 87.4663 56.6843 88.603C56.4569 88.603 56.3812 88.5273 56.3054 88.4515C54.4866 86.9358 52.4405 86.6327 50.2429 87.1632C48.1968 87.6936 46.9085 89.2851 46.7569 91.3312C46.6054 93.6804 47.6663 95.4233 49.7124 96.2569C51.0007 96.7874 52.4405 96.7874 53.8046 96.4843C54.8655 96.2569 55.3202 95.6507 56.8358 94.8171V95.8022H58.9577C58.9577 92.771 59.0335 89.0577 58.9577 85.5718C58.9577 83.3741 57.6694 82.0101 55.5476 81.5554ZM56.6085 91.1038C56.5327 91.3312 56.6085 91.5585 56.6085 91.7858C56.6085 93.3773 56.2296 93.9077 54.714 94.514C53.653 94.8929 52.5163 95.0444 51.3796 94.6655C50.0913 94.2866 49.1819 93.1499 49.1819 91.8616C49.1062 90.5733 49.9397 89.2851 51.228 88.9062C52.971 88.2999 54.5624 88.6788 56.0022 89.7397C56.4569 90.1187 56.7601 90.4976 56.6085 91.1038ZM68.4304 83.6015C70.4007 82.9952 72.2194 83.3741 73.5835 85.0413L73.8108 85.1929C74.3413 84.7382 74.796 84.2835 75.4022 83.753C75.1749 83.5257 75.0991 83.3741 74.9476 83.1468C72.7499 80.7976 68.4304 80.4944 65.778 82.389C62.0647 85.1171 62.1405 90.4218 63.9593 93.2257C65.7022 95.878 68.203 96.7874 71.1585 96.4085C72.9015 96.1812 74.3413 95.3476 75.478 93.9077C74.9476 93.453 74.4171 92.9983 73.8866 92.4679C73.7351 92.6194 73.6593 92.6952 73.5835 92.8468C71.5374 95.1202 68.1272 94.8929 66.3085 92.4679C65.2476 91.028 65.0202 89.3608 65.3233 87.6937C65.4749 85.7991 66.4601 84.2835 68.4304 83.6015ZM84.1929 93.9077C84.0413 93.9835 83.9655 94.0593 83.9655 94.0593C83.3593 94.514 82.753 94.5897 82.071 94.3624C81.389 94.0593 81.3132 93.453 81.2374 92.8468V84.2077C81.2374 84.0562 81.2374 84.3593 81.3132 83.6015H84.1929V81.328H81.1616V77.539H78.8882V81.6312H76.9179C76.7663 81.6312 76.539 81.7827 76.539 81.9343C76.4632 82.4648 76.539 82.8437 76.539 83.6015H78.964V93.3015C78.964 94.514 79.2671 95.5749 80.328 96.1812C81.4647 96.8632 83.6624 96.7116 84.6476 95.878C84.7991 95.8022 84.8749 95.4991 84.8749 95.4233C84.6476 94.9687 84.4202 94.4382 84.1929 93.9077Z" fill="#61DAFB"/>
</svg>
