<svg width="84" height="84" viewBox="0 0 84 84" fill="none" xmlns="http://www.w3.org/2000/svg">
<path d="M82.904 22.3518C82.9035 20.626 82.7298 18.9046 82.3856 17.2134C82.0412 15.4822 81.4558 13.8077 80.6465 12.239C79.8008 10.7196 78.7496 9.32396 77.5228 8.09153C76.2574 6.85345 74.7877 5.84328 73.1784 5.1056C71.5903 4.30478 69.8916 3.74519 68.1384 3.44528C66.3993 3.1106 64.4897 3.1106 62.7506 2.94653H19.8515C18.5133 2.96832 17.1781 3.08014 15.855 3.28122C14.5419 3.4358 13.2566 3.77149 12.0356 4.27872C11.6878 4.44278 11.1693 4.61341 10.8215 4.77747C9.66638 5.39668 8.56834 6.11699 7.54029 6.92997C7.19247 7.26466 6.84466 7.42872 6.49685 7.75684C5.21786 8.94314 4.16013 10.3475 3.3731 11.9043C2.51363 13.451 1.92544 15.1335 1.63404 16.8787C1.37542 18.5818 1.20239 20.2968 1.1156 22.0172V61.6481C1.11614 63.3739 1.28982 65.0954 1.63404 66.7865C1.97843 68.5178 2.56381 70.1922 3.3731 71.7609C4.21887 73.2803 5.27001 74.676 6.49685 75.9084C7.7622 77.1465 9.23194 78.1567 10.8412 78.8943C12.4294 79.6952 14.1281 80.2547 15.8812 80.5546C17.6203 80.8893 19.53 80.8893 21.269 81.0534H62.7572C64.5646 81.0521 66.368 80.8851 68.145 80.5546C69.8981 80.2547 71.5968 79.6952 73.185 78.8943C74.7599 78.0974 76.221 77.0932 77.5293 75.9084C78.8083 74.7221 79.8661 73.3177 80.6531 71.7609C81.5126 70.2142 82.1008 68.5318 82.3922 66.7865C82.6508 65.0835 82.8238 63.3685 82.9106 61.6481V22.3518H82.904Z" fill="#F05138"/>
<path d="M55.7813 63.3282C48.4903 67.351 38.4694 67.7644 28.3828 63.6366C20.5185 60.4457 13.7943 54.9653 9.08252 47.9063C11.2722 49.5825 13.6645 50.976 16.2028 52.0538C26.6175 56.7132 37.0256 56.3916 44.356 52.0538C33.9216 44.4019 25.0622 34.4532 18.4603 26.3288C17.1575 24.9558 15.9946 23.4565 14.9888 21.8532C22.9688 28.816 35.6606 37.6032 40.1756 40.0904C33.7291 33.4851 27.8051 26.3895 22.4569 18.8673C31.3472 27.5067 41.1299 35.1775 51.6403 41.7507C52.1063 42.0001 52.4672 42.2101 52.756 42.4069C53.0641 41.6548 53.3292 40.8857 53.55 40.1035C55.9847 31.6444 53.2022 22.0304 47.1253 14.0701C61.1953 22.1879 69.5625 37.4391 66.0582 50.2098C65.9663 50.5576 65.8678 50.866 65.7628 51.2269L65.8875 51.3713C72.8372 59.6598 70.9275 68.4338 70.0547 66.7932C66.2813 59.7188 59.3053 61.9041 55.7813 63.3282Z" fill="#FEFEFE"/>
</svg>
