<svg width="39" height="31" viewBox="0 0 39 31" fill="none" xmlns="http://www.w3.org/2000/svg">
<path d="M10.7396 4.0729C13.1759 1.6785 16.2831 0.356102 19.5 0.344604C26.0569 0.344604 31.4998 5.90093 32.0921 13.0658C35.9726 13.6909 39 17.3942 39 21.9393C39 26.9288 35.3486 30.9044 30.9246 30.9044H9.21619C4.16325 30.9044 0 26.3649 0 20.6752C0 15.7773 3.08587 11.7212 7.17112 10.6933C7.51969 8.2957 8.8725 5.90649 10.7396 4.0729V4.0729ZM12.3313 6.17597C10.4861 7.99011 9.52087 10.1765 9.52087 11.8879V13.1325L8.43619 13.2686C5.031 13.6937 2.4375 16.8802 2.4375 20.6752C2.4375 24.7508 5.43562 28.1262 9.21619 28.1262H30.9246C34.0763 28.1262 36.5625 25.3147 36.5625 21.9393C36.5625 18.561 34.0763 15.7495 30.9246 15.7495H29.7058V14.3604C29.7083 8.19291 25.1745 3.12277 19.5 3.12277C16.8672 3.13475 14.3248 4.21857 12.3313 6.17874V6.17597Z" fill="#29A28C"/>
</svg>
