<svg width="97" height="112" viewBox="0 0 97 112" fill="none" xmlns="http://www.w3.org/2000/svg">
<path d="M24.3948 80.9953C24.1155 80.9953 23.8372 81.0761 23.5956 81.2375C23.3539 81.3989 23.1323 81.6772 23.1323 82.0345C23.1323 82.0815 23.1049 82.187 23.1959 82.371L23.1722 82.3127L28.03 98.2354C28.1169 98.5341 28.3257 98.7623 28.5598 98.8933C28.794 99.0243 29.0517 99.0743 29.3014 99.0743C29.8322 99.0743 30.4151 98.8183 30.5935 98.2413V98.2398L35.4468 82.2574V82.1991C35.4468 82.2797 35.4705 82.2331 35.4705 82.0585C35.4705 81.6951 35.2407 81.4279 34.9954 81.26C34.75 81.092 34.4611 80.9953 34.1606 80.9953C33.79 80.9953 33.3636 81.223 33.2207 81.6562L33.2178 81.6607L29.2999 94.8708L25.3673 81.6845C25.309 81.4489 25.1519 81.2515 24.9691 81.1417C24.7864 81.0319 24.587 80.9951 24.3948 80.9951L24.3948 80.9953ZM63.0849 81.8162C62.3117 81.8162 61.6596 82.4147 61.6596 83.1636C61.6596 83.9124 62.3015 84.5318 63.0849 84.5318C63.8535 84.5318 64.4644 83.9008 64.4644 83.1636C64.4644 82.4263 63.843 81.8162 63.0849 81.8162ZM51.6958 86.9139C49.0522 86.9139 46.8751 89.0512 46.8751 91.6198V94.2517C46.8751 95.6903 47.4425 96.9234 48.4055 97.7748C49.3685 98.6261 50.7127 99.0967 52.2538 99.0967C53.392 99.0967 54.3197 98.8392 54.9831 98.4896C55.3148 98.3147 55.5813 98.1186 55.7779 97.9049C55.9745 97.6911 56.1198 97.4572 56.1198 97.1647C56.1198 96.8961 56.0174 96.6634 55.8519 96.4544C55.6864 96.2454 55.4256 96.0536 55.0896 96.0536C54.8469 96.0536 54.6606 96.1568 54.499 96.257C54.3375 96.3572 54.1858 96.4678 54.0032 96.574C53.638 96.7864 53.1541 96.9927 52.2996 96.9927C51.3483 96.9927 50.5549 96.7186 50.0085 96.2585C49.462 95.7984 49.1441 95.1596 49.1441 94.322V93.8345H54.021C54.5412 93.8345 55.1194 93.8353 55.6195 93.513C56.1197 93.1904 56.4232 92.5492 56.4232 91.5735C56.4232 88.8715 54.1917 86.914 51.6957 86.914L51.6958 86.9139ZM70.0242 86.9139C68.6191 86.9139 67.5857 87.3733 66.9219 88.0639C66.2581 88.7545 65.9717 89.6529 65.9717 90.4924C65.9717 91.5623 66.3995 92.329 67.0121 92.8206C67.6248 93.3122 68.3871 93.5596 69.1124 93.7806C69.8377 94.0017 70.532 94.1978 70.9981 94.488C71.4642 94.7781 71.7145 95.0919 71.7145 95.7545C71.7145 96.1102 71.6087 96.3933 71.3222 96.6248C71.0358 96.8563 70.5273 97.039 69.6985 97.039C68.7182 97.039 68.1703 96.7947 67.7714 96.5456C67.572 96.421 67.4114 96.2917 67.246 96.1762C67.0806 96.0607 66.8931 95.9355 66.6303 95.9355C66.314 95.9355 66.0807 96.1323 65.9391 96.3362C65.7974 96.5401 65.7156 96.7717 65.7156 97.0226C65.7156 97.3328 65.865 97.6055 66.0767 97.842C66.2884 98.0786 66.5749 98.2891 66.9263 98.4731C67.629 98.841 68.5966 99.0966 69.7459 99.0966C70.9936 99.0966 72.0198 98.7889 72.7461 98.192C73.4723 97.595 73.868 96.7075 73.868 95.6842C73.868 94.5285 73.4521 93.6974 72.8393 93.1481C72.2265 92.5989 71.4529 92.3157 70.7169 92.0879C69.9809 91.86 69.2727 91.6827 68.7987 91.4329C68.3247 91.1831 68.1016 90.9528 68.1016 90.422C68.1016 90.135 68.2152 89.7739 68.5042 89.489C68.7931 89.204 69.2644 88.9731 70.0479 88.9731C70.6739 88.9731 71.1392 89.1183 71.5117 89.2722C71.6979 89.3491 71.8598 89.4294 72.0134 89.4965C72.1671 89.5634 72.3087 89.6295 72.5122 89.6295C72.8798 89.6295 73.1317 89.3846 73.2819 89.157C73.432 88.9295 73.5187 88.705 73.5187 88.4482C73.5187 88.1265 73.3205 87.8985 73.1013 87.7274C72.8821 87.5564 72.6072 87.4206 72.2887 87.3028C71.6517 87.067 70.8393 86.914 70.0241 86.914L70.0242 86.9139ZM36.7888 87.056C36.1742 87.056 35.6433 87.4453 35.6433 88.025V94.298C35.6433 96.8428 37.7847 99.0967 40.4403 99.0967C43.0511 99.0967 45.2373 96.8693 45.2373 94.298V88.0026C45.2373 87.7125 45.0793 87.4608 44.8717 87.3013C44.6641 87.1417 44.4004 87.056 44.1139 87.056C43.8275 87.056 43.5622 87.1406 43.3502 87.2968C43.1382 87.453 42.9683 87.7027 42.9683 88.0026V94.298C42.9683 95.632 41.8177 96.9224 40.4403 96.9224C39.0401 96.9224 37.9124 95.609 37.9124 94.298V88.025C37.9124 87.7245 37.7499 87.4928 37.5482 87.3281C37.3466 87.1634 37.0832 87.056 36.7889 87.056L36.7888 87.056ZM63.0857 87.056C62.7983 87.056 62.5321 87.1307 62.3205 87.2922C62.1088 87.4538 61.9638 87.7196 61.9638 88.0025V99.5604C61.9638 100.428 61.9036 101.155 61.7151 101.596C61.5266 102.036 61.3042 102.231 60.6686 102.231C60.1072 102.231 59.6385 102.727 59.6385 103.32C59.6385 103.566 59.7172 103.837 59.9167 104.048C60.1163 104.259 60.4261 104.383 60.784 104.383C61.9922 104.383 62.9166 103.842 63.4675 102.962C64.0184 102.083 64.2327 100.907 64.2327 99.5604V88.0025C64.2327 87.7013 64.0624 87.4393 63.8464 87.2847C63.6304 87.1301 63.3651 87.0559 63.0856 87.0559L63.0857 87.056ZM51.6723 88.9491C53.1813 88.9491 54.2003 90.2255 54.2003 91.5256C54.2003 91.6673 54.1852 91.76 54.1707 91.8023C54.1562 91.8444 54.1575 91.839 54.1366 91.8531C54.0948 91.8813 53.8619 91.9413 53.4158 91.9413H49.1443V91.4314C49.1443 90.0707 50.2692 88.9491 51.6722 88.9491L51.6723 88.9491ZM58.8804 96.1239C58.0561 96.1239 57.4314 96.813 57.4314 97.6103C57.4314 98.3761 58.0467 99.0742 58.8804 99.0742C59.67 99.0742 60.3057 98.3974 60.3057 97.6103C60.3057 96.7933 59.6595 96.1239 58.8804 96.1239Z" fill="#35495E"/>
<path d="M23.7981 6.30127L38.749 6.30698L48.5222 22.6965L58.2609 6.3083L73.1988 6.30429L48.5969 49.4189L23.7981 6.30127Z" fill="#35495E"/>
<path d="M7.49243 6.4168L23.7849 6.30444L48.5824 49.421L73.1856 6.30707L89.5067 6.32434L48.5798 77.2856L7.49243 6.4168Z" fill="#41B883"/>
</svg>
