<svg width="28" height="29" viewBox="0 0 28 29" fill="none" xmlns="http://www.w3.org/2000/svg">
<path d="M21.9232 5.7158C19.7228 3.5143 16.7968 2.30097 13.6795 2.2998C7.25583 2.2998 2.028 7.5253 2.02567 13.949C2.0245 16.0023 2.56117 18.0066 3.58083 19.773L2 25.6331L8.10517 24.19C9.80733 25.1186 11.723 25.6075 13.6737 25.6086H13.6783C20.1008 25.6086 25.3287 20.382 25.3322 13.9595C25.3345 10.8456 24.1235 7.91847 21.9232 5.7158ZM19.381 18.1128C19.1383 18.793 17.9495 19.4486 17.4152 19.4965C16.8808 19.5455 16.3803 19.738 13.921 18.7685C10.9612 17.6018 9.09217 14.5673 8.9475 14.3736C8.80167 14.1788 7.75867 12.7951 7.75867 11.3625C7.75867 9.9298 8.51117 9.22514 8.77833 8.93464C9.0455 8.64297 9.3605 8.57064 9.55533 8.57064C9.749 8.57064 9.94383 8.57064 10.113 8.57764C10.3207 8.5858 10.5505 8.5963 10.7687 9.08047C11.0277 9.65681 11.5935 11.0965 11.6658 11.2423C11.7382 11.3881 11.7872 11.5585 11.6903 11.7521C11.5935 11.9458 11.5445 12.0671 11.3998 12.2375C11.254 12.4078 11.0942 12.6166 10.9635 12.7473C10.8177 12.892 10.666 13.0506 10.8352 13.3411C11.0055 13.6328 11.5888 14.586 12.4545 15.3571C13.5675 16.3488 14.5043 16.6556 14.796 16.8026C15.0877 16.9485 15.2568 16.924 15.4272 16.7291C15.5975 16.5355 16.1552 15.8798 16.3488 15.5881C16.5425 15.2965 16.7373 15.3455 17.0045 15.4423C17.2717 15.5391 18.7032 16.2438 18.9937 16.3896C19.2853 16.5355 19.479 16.6078 19.5513 16.7291C19.6237 16.8493 19.6237 17.4326 19.381 18.1128Z" fill="black"/>
</svg>
