<svg width="121" height="42" viewBox="0 0 121 42" fill="none" xmlns="http://www.w3.org/2000/svg">
<g clip-path="url(#clip0_20_294)">
<path d="M114.495 0H40.3334V42H114.495C118.087 42 121 39.0618 121 35.4375V6.5625C121 2.93814 118.087 0 114.495 0Z" fill="#0F1418"/>
<path d="M40.3333 0H6.50538C2.91256 0 0 2.93814 0 6.5625V35.4375C0 39.0618 2.91256 42 6.50538 42H40.3333V0Z" fill="url(#paint0_linear_20_294)"/>
<path d="M33.9363 7.875C33.8566 7.87556 33.7769 7.88423 33.6988 7.90084L33.6964 7.89849L21.7117 9.5481V19.9063H35.129V9.07813C35.129 8.75903 35.0033 8.45301 34.7797 8.22739C34.556 8.00176 34.2526 7.875 33.9363 7.875ZM19.3171 9.87473L7.54195 11.4961C7.2554 11.5343 6.99234 11.6761 6.80166 11.8953C6.61101 12.1144 6.50571 12.3959 6.50537 12.6875V19.9063H19.3171V9.87473ZM6.50537 22.3125V29.5312C6.50563 29.8295 6.61564 30.1169 6.81404 30.3378C7.01245 30.5588 7.28513 30.6977 7.57923 30.7273L19.3171 32.3441V22.3125H6.50537ZM21.7117 22.3125V32.6706L33.6964 34.3203C33.6972 34.3203 33.698 34.3203 33.6988 34.3203C33.7769 34.3361 33.8566 34.3439 33.9363 34.3438C34.2526 34.3438 34.556 34.217 34.7797 33.9914C35.0033 33.7658 35.129 33.4597 35.129 33.1406V22.3125H21.7117Z" fill="white"/>
<path d="M78.3075 15.0898L74.6958 28.8749H71.2843L69.0164 20.0309C68.8956 19.5695 68.8226 19.0536 68.7971 18.4832H68.759C68.7019 19.1112 68.6193 19.6272 68.5113 20.0309L66.1861 28.8749H62.6317L59.0391 15.0898H62.403L64.3279 24.2703C64.4104 24.6612 64.4708 25.1866 64.5089 25.8468H64.5662C64.5915 25.3533 64.6836 24.8149 64.8425 24.2318L67.3201 15.0898H70.6173L72.8566 24.3472C72.9392 24.6868 73.0123 25.1803 73.0758 25.8275H73.114C73.1393 25.3213 73.2061 24.8086 73.3141 24.2894L75.2009 15.0898H78.3075ZM84.0401 24.126V28.8749H80.9622V15.0898H85.784C89.2273 15.0898 90.9488 16.5542 90.9488 19.4829C90.9488 20.8672 90.4534 21.9887 89.4624 22.8475C88.4776 23.6998 87.1593 24.126 85.5076 24.126H84.0401ZM84.0401 17.4739V21.7709H85.2503C86.8894 21.7709 87.7089 21.0466 87.7089 19.5983C87.7089 18.182 86.8894 17.4739 85.2503 17.4739H84.0401ZM101.77 17.618H96.9484V21.0019H101.379V23.5204H96.9484V28.8749H93.8704V15.0898H101.77V17.618Z" fill="white"/>
<path d="M114.495 0H6.50538C2.91256 0 0 2.93814 0 6.5625V35.4375C0 39.0618 2.91256 42 6.50538 42H114.495C118.087 42 121 39.0618 121 35.4375V6.5625C121 2.93814 118.087 0 114.495 0Z" fill="url(#paint1_linear_20_294)"/>
</g>
<defs>
<linearGradient id="paint0_linear_20_294" x1="40.3333" y1="1.2517e-06" x2="-0.363902" y2="41.6444" gradientUnits="userSpaceOnUse">
<stop stop-color="#23CAF6"/>
<stop offset="1" stop-color="#0575BD"/>
</linearGradient>
<linearGradient id="paint1_linear_20_294" x1="0" y1="0" x2="0" y2="42" gradientUnits="userSpaceOnUse">
<stop stop-color="#BBBBBB" stop-opacity="0.1"/>
<stop offset="1" stop-opacity="0.1"/>
</linearGradient>
<clipPath id="clip0_20_294">
<rect width="121" height="42" fill="white"/>
</clipPath>
</defs>
</svg>
