<svg width="85" height="84" viewBox="0 0 85 84" fill="none" xmlns="http://www.w3.org/2000/svg">
<path d="M42.5001 42L42.6063 41.65L51.6376 24.85L52.2397 24.5H57.8709L58.4376 24.85V25.55L49.5834 42L58.4376 58.45V59.15L57.8709 59.5H52.2397L51.6376 59.15L42.6063 42.35L42.5001 42V42.35L33.3626 59.15L32.7605 59.5H27.1292L26.5626 59.15V58.45L35.4167 42L26.5626 25.55V24.85L27.1292 24.5H32.7605L33.3626 24.85L42.5001 41.65V42ZM80.573 38.745C81.1397 39.725 81.4584 40.845 81.4584 42C81.4584 43.155 81.1397 44.275 80.573 45.255L64.0334 73.5C62.7584 75.67 60.4209 77 57.9063 77H27.0938C24.5792 77 22.2417 75.67 20.9667 73.5L4.42716 45.255C3.8605 44.275 3.54175 43.155 3.54175 42C3.54175 40.845 3.8605 39.725 4.42716 38.745L20.9667 10.5C22.2417 8.33 24.5792 7 27.0938 7H57.9063C60.4209 7 62.7584 8.33 64.0334 10.5L80.573 38.745ZM73.6667 39.375L60.1022 16.8C59.0751 15.05 57.1626 14 55.1084 14H29.8917C27.8376 14 25.9251 15.05 24.898 16.8L11.3334 39.375C10.873 40.25 10.6251 41.09 10.6251 42C10.6251 42.91 10.873 43.75 11.3334 44.625L24.898 67.2C25.9251 68.95 27.8376 70 29.8917 70H55.1084C57.1626 70 59.0751 68.95 60.1022 67.2L73.6667 44.625C74.1272 43.75 74.3751 42.91 74.3751 42C74.3751 41.09 74.1272 40.25 73.6667 39.375Z" fill="black"/>
</svg>
